<?xml version="1.0" encoding="UTF-8"?>
<svg version="1.1" xmlns="http://www.w3.org/2000/svg" width="1024" height="1024">
<path d="M0 0 C0.87785156 -0.04898438 1.75570312 -0.09796875 2.66015625 -0.1484375 C12.58550859 1.43677968 19.0697761 7.84488525 25.75 14.875 C26.56919922 15.71675781 27.38839844 16.55851563 28.23242188 17.42578125 C29.8019354 19.03977492 31.36658314 20.65851941 32.92553711 22.28271484 C35.2306726 24.67987673 37.57779649 27.03162662 39.9375 29.375 C40.79988281 30.24898437 41.66226563 31.12296875 42.55078125 32.0234375 C47.18086651 36.70042666 51.84119007 41.24439523 56.859375 45.5078125 C59.42328524 47.81147621 61.78835011 50.27544825 64.1875 52.75 C77.52628801 66.25546498 90.51111043 71.87811568 108.90917969 74.91821289 C113.99961349 75.7728976 118.70997286 76.80290483 123.5625 78.625 C133.13804878 82.00300298 140.38667564 81.12032478 149.4375 76.875 C165.27233274 69.01388526 174.05954636 61.8086121 180.26953125 45.16503906 C184.89210344 32.9475202 191.12696914 23.81347095 203.046875 17.80859375 C215.56945361 12.55090823 228.73521722 11.92125271 241.6953125 16.30859375 C253.1973214 21.51875139 263.23788602 31.80542321 267.8125 43.625 C271.62503004 57.18330997 270.29678951 71.71959296 263.421875 84.07421875 C256.64075214 94.58495918 246.18339541 102.26737327 233.9375 105.375 C231.0555536 105.6162776 228.20256543 105.61016601 225.3125 105.5625 C224.56226563 105.56185547 223.81203125 105.56121094 223.0390625 105.56054688 C219.49614379 105.53227891 216.34992488 105.26527209 212.9375 104.375 C203.27520497 103.41363815 196.55875936 104.16911738 188.9375 110.375 C183.74489365 114.85952366 179.32114135 119.45831876 177.9375 126.375 C177.82507737 128.28444441 177.75987318 130.19691397 177.7265625 132.109375 C177.33592646 148.87907984 176.80827485 164.78458725 169.9375 180.375 C169.45216797 181.48875 169.45216797 181.48875 168.95703125 182.625 C161.63934563 197.41887706 146.43686804 210.22609538 131 215.625 C110.63880451 221.84215893 91.13124835 220.39024544 71.9375 211.375 C56.61398932 203.16316992 45.57297984 190.8982414 37.625 175.5625 C37.31159668 174.97202881 36.99819336 174.38155762 36.67529297 173.77319336 C29.11117553 158.4124963 29.3929855 142.99916494 29.4375 126.25 C29.65266173 97.2627028 29.65266173 97.2627028 14.93920898 72.97021484 C13.44717155 71.49875015 11.94485998 70.0376463 10.43359375 68.5859375 C9.63268814 67.7978067 8.83178253 67.0096759 8.00660706 66.19766235 C5.47225272 63.70516512 2.92509008 61.22638805 0.375 58.75 C-2.17772619 56.2655879 -4.72711188 53.77812873 -7.26731873 51.28091431 C-8.84026493 49.73496853 -10.42033716 48.19622742 -12.00868225 46.66610718 C-18.96164724 39.83982812 -23.5685461 33.91988911 -24.3125 24.0625 C-23.79060995 16.36462175 -20.755012 10.57882767 -15.0625 5.375 C-10.31654101 2.0498058 -5.79762076 0.21688941 0 0 Z " fill="#7FBEA4" transform="translate(539.0625,533.625)"/>
<path d="M0 0 C6.44800847 5.50415515 11.57950297 11.21350269 15 19 C15.31710937 19.66 15.63421875 20.32 15.9609375 21 C20.03351067 30.86384693 19.1849642 43.39355379 15.3828125 53.19140625 C9.417379 65.30763983 -0.14697253 74.57395747 -13 79 C-16.29306413 79.99565157 -19.29243563 80.12410153 -22.7265625 80.140625 C-24.39912109 80.16962891 -24.39912109 80.16962891 -26.10546875 80.19921875 C-28.42821518 80.23273229 -30.75123205 80.25127546 -33.07421875 80.25390625 C-42.63239882 80.46240846 -50.56992793 82.75483792 -57.375 89.8125 C-62.91174463 95.80877202 -65.47928387 100.88910581 -65.3359375 109.1171875 C-65.03513973 111.69845207 -64.53776409 114.09736907 -63.96875 116.62890625 C-62.63374496 123.07326362 -62.95434655 129.33656642 -63.25390625 135.87695312 C-63.39515331 141.79686676 -62.60914822 145.94187909 -59.87060547 151.22045898 C-59 153 -59 153 -59 155 C-58.34 155 -57.68 155 -57 155 C-55.64613064 156.65002828 -54.31321858 158.3174387 -53 160 C-52.34 160.33 -51.68 160.66 -51 161 C-51 161.66 -51 162.32 -51 163 C-50.42765625 163.24363281 -49.8553125 163.48726562 -49.265625 163.73828125 C-46.59566462 165.22517298 -44.86170993 166.98083908 -42.75 169.1875 C-39.36354917 172.71608289 -35.81088139 175.93858404 -32.11865234 179.13745117 C-27.94559571 182.8060671 -23.94409424 186.66039573 -19.91210938 190.48242188 C-16.19953748 193.98573316 -12.44527724 197.37353204 -8.48413086 200.5949707 C-4.16036579 204.6882867 -2.17808771 210.0249807 -1.82832336 215.86791992 C-1.80674667 216.97756104 -1.78516998 218.08720215 -1.76293945 219.23046875 C-1.73653885 220.4927832 -1.71013824 221.75509766 -1.68293762 223.05566406 C-1.65929116 224.43293543 -1.63608368 225.8102144 -1.61328125 227.1875 C-1.58758979 228.61035321 -1.56180603 230.03320475 -1.53593445 231.45605469 C-1.48299279 234.44184723 -1.43408772 237.42767692 -1.38745117 240.41357422 C-1.32745712 244.20824822 -1.25313816 248.00248981 -1.17507648 251.79682922 C-1.11694389 254.73957601 -1.06890239 257.68242872 -1.023489 260.62539673 C-1.0003411 262.02225105 -0.97367097 263.41905225 -0.94317055 264.81576538 C-0.44277968 288.31611363 -0.44277968 288.31611363 -7 297 C-12.66885213 302.2740067 -19.16579018 304.51267491 -26.96484375 304.2421875 C-34.2907561 303.37038987 -40.29077312 299.63854217 -45 294 C-48.44595417 287.73207444 -48.41087553 282.12717396 -48.37109375 275.07421875 C-48.38847807 272.7272121 -48.40606243 270.38020692 -48.42382812 268.03320312 C-48.43388476 264.36007937 -48.43749979 260.68705295 -48.43579102 257.01391602 C-48.43937918 253.45039393 -48.46678999 249.88760871 -48.49609375 246.32421875 C-48.48791122 245.23848068 -48.4797287 244.15274261 -48.47129822 243.03410339 C-48.64533337 225.03757674 -59.80345011 214.70931331 -71.80419922 202.61035156 C-79.47451789 195.09847204 -88.79656652 187.17179299 -100.14770508 186.93408203 C-101.42540771 186.95841309 -102.70311035 186.98274414 -104.01953125 187.0078125 C-105.44986223 187.0253669 -106.8802013 187.04227137 -108.31054688 187.05859375 C-110.54377333 187.08918257 -112.77658019 187.12424161 -115.00952148 187.17138672 C-133.02369197 187.53114464 -149.29831339 184.77318901 -163.4375 172.6875 C-175.6112315 160.87299336 -181.78871288 146.16352671 -182.375 129.3125 C-182.10028227 113.51623042 -176.28105566 99.74916678 -165.48046875 88.3515625 C-151.73195025 75.31753393 -137.11952122 70.38363473 -118.5859375 70.73046875 C-113.21652635 70.94887408 -108.26244076 72.06159469 -103.0390625 73.31640625 C-94.71199544 75.18946118 -87.58131306 73.99721661 -80 70 C-74.91420206 66.0620675 -71.55534881 61.91736964 -69 56 C-68.6545769 52.91462771 -68.6545769 52.91462771 -68.84765625 49.7109375 C-68.87537109 48.52113281 -68.90308594 47.33132813 -68.93164062 46.10546875 C-69.01806403 43.6417569 -69.10912017 41.17820267 -69.20507812 38.71484375 C-69.50230426 25.24542512 -65.94561336 15.1295916 -57 5 C-42.67907535 -9.08224257 -16.60027667 -11.71403539 0 0 Z " fill="#7FBDA4" transform="translate(483,241)"/>
<path d="M0 0 C1.39149057 1.16813323 2.76724859 2.35531635 4.125 3.5625 C4.78757812 4.12066406 5.45015625 4.67882812 6.1328125 5.25390625 C19.1760554 17.09512481 26.28968987 35.10168264 27.36328125 52.40234375 C27.82937178 69.82565503 23.54279087 85.42768181 13.125 99.5625 C12.39023437 100.56603516 12.39023437 100.56603516 11.640625 101.58984375 C1.12957605 114.72865493 -15.45886384 122.42176471 -31.875 124.5625 C-39.30469699 125.10863209 -46.78148443 125.00318114 -54.22705078 124.99829102 C-68.04290877 124.88332744 -68.04290877 124.88332744 -80.875 129.5625 C-81.80570313 130.04589844 -82.73640625 130.52929688 -83.6953125 131.02734375 C-95.3588303 138.48013394 -105.77176524 147.72314014 -116.29248047 156.67871094 C-120.49841084 160.25839305 -124.7624761 163.75980602 -129.05859375 167.23046875 C-131.11196274 168.93069245 -133.11202568 170.65009558 -135.09765625 172.42578125 C-142.2524202 178.78125915 -149.03836015 184.45839628 -159 185 C-166.71066406 184.12944115 -172.68081772 181.45539208 -177.875 175.5625 C-181.72244651 169.51151595 -183.45548672 163.76053535 -182.875 156.5625 C-179.93833256 144.57772205 -170.69754371 138.03408874 -161.38793945 130.86401367 C-156.42835317 127.04134472 -151.67099165 123.02263718 -146.93945312 118.92285156 C-142.39315577 114.98805958 -137.76579678 111.17323144 -133.08203125 107.40234375 C-130.89677442 105.64973326 -130.89677442 105.64973326 -129.19921875 103.81640625 C-127.875 102.5625 -127.875 102.5625 -125.875 102.5625 C-125.45734375 101.69044922 -125.45734375 101.69044922 -125.03125 100.80078125 C-123.93111368 98.67112547 -122.70529857 96.74139206 -121.375 94.75 C-115.01469746 84.51739563 -115.80825485 72.17022153 -115.9375 60.5 C-116.06109459 42.39624518 -111.78679942 27.20905963 -100.875 12.5625 C-100.111875 11.510625 -99.34875 10.45875 -98.5625 9.375 C-72.21499335 -18.19797207 -30.90730335 -23.18047751 0 0 Z " fill="#C7DAC5" transform="translate(683.875,271.4375)"/>
<path d="M0 0 C5.62190491 3.35174881 9.56334243 8.22193737 11.5625 14.4375 C11.8984375 17.48828125 11.8984375 17.48828125 11.9375 20.75 C11.96585938 21.81863281 11.99421875 22.88726563 12.0234375 23.98828125 C10.62580539 34.44683341 2.80564832 40.66871386 -4.375 47.625 C-5.47163368 48.70152684 -6.56734464 49.77899448 -7.66210938 50.85742188 C-9.67917439 52.84206218 -11.70147305 54.82101168 -13.73022461 56.79370117 C-15.55012014 58.57092624 -17.33998567 60.3793789 -19.09985352 62.21606445 C-21.4375 64.4375 -21.4375 64.4375 -24.4375 65.4375 C-24.4375 66.0975 -24.4375 66.7575 -24.4375 67.4375 C-25.60379452 68.50610995 -26.82255932 69.5177998 -28.0625 70.5 C-41.15419542 81.76117518 -42.02703992 96.94526894 -43.27636719 113.18652344 C-43.91196355 122.06561203 -44.24590785 130.4865698 -38.5625 137.875 C-34.30300121 141.00698441 -31.15243893 141.85305783 -25.8359375 141.0625 C-22.91476663 140.30128284 -20.32187592 139.09830016 -17.5625 137.875 C-7.48380764 133.85991117 3.94393486 133.59119821 14.125 137.5 C25.41877433 143.08449062 33.05204651 150.98173882 38 162.625 C41.49854423 173.33266567 40.53359385 184.41019083 35.5625 194.4375 C33.5625 197.8125 33.5625 197.8125 31.5625 200.4375 C30.985 201.2625 30.4075 202.0875 29.8125 202.9375 C22.41765625 211.15399306 11.87954124 216.82577985 0.80078125 217.640625 C-12.11134052 217.84749477 -21.89276646 214.12151527 -31.62890625 205.49609375 C-37.32878985 199.26080034 -39.89081906 191.80367291 -42.5612793 183.92529297 C-44.90285912 177.14994884 -47.12660088 172.53763149 -53.375 168.57421875 C-54.385625 168.09597656 -55.39625 167.61773438 -56.4375 167.125 C-57.448125 166.63386719 -58.45875 166.14273438 -59.5 165.63671875 C-67.25093077 162.47244249 -75.59031884 162.73346635 -83.6875 164.4375 C-100.07925391 167.6598106 -114.47224666 164.36536727 -128.4375 155.4375 C-139.50173831 147.90675097 -145.75877525 135.77463014 -149.046875 123.0859375 C-151.37514005 107.30030048 -148.85954076 92.52366772 -139.4375 79.4375 C-128.69855809 65.18062885 -114.04999822 60.46699375 -97.00390625 58.015625 C-80.75130966 55.48501936 -70.97630796 47.35823161 -59.68359375 35.80859375 C-58.89783463 35.01526138 -58.1120755 34.22192902 -57.30250549 33.40455627 C-54.82168237 30.89957344 -52.34752042 28.38817652 -49.875 25.875 C-46.60882932 22.55523848 -43.33581655 19.24244133 -40.05859375 15.93359375 C-39.32708603 15.18548935 -38.59557831 14.43738495 -37.84190369 13.66661072 C-27.51652037 3.24485413 -15.5458688 -6.99263983 0 0 Z " fill="#81BEA4" transform="translate(471.4375,569.5625)"/>
<path d="M0 0 C8.21318343 5.85996795 13.80027806 13.69723209 15.7734375 23.67578125 C16.69772482 33.87324629 15.17958759 42.90722638 8.5859375 50.98828125 C2.81224693 57.03513567 -4.39271389 62.22926033 -12.86328125 63.01171875 C-23.91944776 63.26342818 -31.68136422 61.86592109 -40.4765625 54.67578125 C-47.23453254 48.12033712 -51.34957486 41.12890477 -51.83154297 31.63525391 C-51.93589971 20.76942663 -49.14808261 12.67340784 -41.6484375 4.72265625 C-29.99547321 -5.12597809 -13.44945162 -7.99888439 0 0 Z " fill="#C8DBC5" transform="translate(311.2265625,553.32421875)"/>
<path d="M0 0 C6.80534008 3.61099678 13.11135604 9.88285472 16 17.125 C18.74949232 27.40414774 17.99410832 38.58742824 13 48 C8.23907497 55.48145362 0.50946403 60.72735046 -8 63 C-19.81528916 64.06288166 -29.39976616 63.04328632 -38.8125 55.3125 C-46.20095671 48.27649618 -49.35408337 40.35151357 -50.375 30.3125 C-50.00526236 20.40742314 -46.41756797 12.12529685 -39.515625 5.09765625 C-28.63855806 -3.97219615 -12.8656339 -6.26927076 0 0 Z " fill="#C8DAC6" transform="translate(739,394)"/>
<path d="M0 0 C3.70138448 2.16666408 6.4102878 4.31207197 9.16796875 7.60546875 C13.1454212 12.23486769 17.41160422 16.52331813 21.75 20.8125 C22.50410156 21.56208984 23.25820313 22.31167969 24.03515625 23.08398438 C25.42559075 24.46577497 26.81705907 25.84652673 28.20996094 27.22583008 C29.09603027 28.10404419 29.09603027 28.10404419 30 29 C30.57266602 29.53069092 31.14533203 30.06138184 31.73535156 30.6081543 C33 32 33 32 33 34 C30.16523963 32.70858201 28.09341262 31.34796296 25.88378906 29.15844727 C25.30348938 28.5876796 24.7231897 28.01691193 24.12530518 27.42884827 C23.51161072 26.8142424 22.89791626 26.19963654 22.265625 25.56640625 C21.62759949 24.93266586 20.98957397 24.29892548 20.33221436 23.64598083 C18.98829918 22.30779859 17.64698355 20.96700125 16.30810547 19.6237793 C14.25222496 17.56472839 12.18335518 15.51937858 10.11328125 13.47460938 C8.80908584 12.17268591 7.50567291 10.86997801 6.203125 9.56640625 C5.58133362 8.95382462 4.95954224 8.34124298 4.31890869 7.71009827 C0 3.34380187 0 3.34380187 0 0 Z " fill="#77B39C" transform="translate(529,579)"/>
<path d="M0 0 C5.94 0 11.88 0 18 0 C15.42095457 2.57904543 13.83048519 2.46989932 10.25 2.9375 C5.59667349 3.6332725 2.14621931 4.71957938 -2 7 C-3.32 7 -4.64 7 -6 7 C-5.67 5.68 -5.34 4.36 -5 3 C-3.35 2.67 -1.7 2.34 0 2 C0 1.34 0 0.68 0 0 Z " fill="#8EC0AC" transform="translate(734,634)"/>
<path d="M0 0 C2.475 0.495 2.475 0.495 5 1 C0.61284541 5.38715459 -5.65703304 5.25586902 -11.52929688 5.2734375 C-12.40650391 5.26570313 -13.28371094 5.25796875 -14.1875 5.25 C-15.07630859 5.25773437 -15.96511719 5.26546875 -16.88085938 5.2734375 C-17.73873047 5.27085937 -18.59660156 5.26828125 -19.48046875 5.265625 C-20.25285889 5.26336914 -21.02524902 5.26111328 -21.82104492 5.25878906 C-24.25000741 4.97030724 -25.889922 4.20815838 -28 3 C-22.21354356 1.74593862 -16.51131884 1.88813087 -10.625 1.9375 C-9.09166016 1.94426758 -9.09166016 1.94426758 -7.52734375 1.95117188 C-5.01816806 1.962897 -2.5091151 1.97930824 0 2 C0 1.34 0 0.68 0 0 Z " fill="#93C3B0" transform="translate(470,316)"/>
<path d="M0 0 C0.66 0 1.32 0 2 0 C2.05454409 2.35448675 2.0939279 4.70767875 2.125 7.0625 C2.14820313 8.37347656 2.17140625 9.68445313 2.1953125 11.03515625 C1.99417522 15.11824299 1.27165462 18.14999053 0 22 C-0.66 22 -1.32 22 -2 22 C-1.835 20.7625 -1.67 19.525 -1.5 18.25 C-0.93099651 13.28702513 -0.96170603 8.39555175 -1.0625 3.40625 C-1 1 -1 1 0 0 Z " fill="#94C2AE" transform="translate(509,738)"/>
<path d="M0 0 C6.57142857 5.14285714 6.57142857 5.14285714 8 9 C6.02 9.66 4.04 10.32 2 11 C0.80712589 7.12315913 0 4.08378077 0 0 Z " fill="#97C5B0" transform="translate(496,714)"/>
<path d="M0 0 C0.680625 -0.01224609 1.36125 -0.02449219 2.0625 -0.03710938 C3.83490756 -0.04236355 5.6067994 0.06534094 7.375 0.1875 C8.035 0.8475 8.695 1.5075 9.375 2.1875 C-1.515 2.6825 -1.515 2.6825 -12.625 3.1875 C-11.625 1.1875 -11.625 1.1875 -10.0390625 0.57421875 C-6.69342387 0.03826693 -3.37883293 0.00323643 0 0 Z " fill="#7AB89E" transform="translate(358.625,311.8125)"/>
<path d="M0 0 C0.9760795 3.90431801 1 5.99391574 1 10 C-0.32 10 -1.64 10 -3 10 C-3 9.34 -3 8.68 -3 8 C-4.32 7.67 -5.64 7.34 -7 7 C-4.69 4.69 -2.38 2.38 0 0 Z " fill="#95C8B3" transform="translate(437,580)"/>
<path d="M0 0 C2.31 0.66 4.62 1.32 7 2 C7 2.33 7 2.66 7 3 C0.2168636 4.42002108 -6.06697907 5.22731216 -13 5 C-12.67 4.34 -12.34 3.68 -12 3 C-9.53125 2.40234375 -9.53125 2.40234375 -6.5 1.9375 C-2.93945782 1.64569564 -2.93945782 1.64569564 0 0 Z " fill="#98C7B6" transform="translate(386,730)"/>
<path d="M0 0 C0.33 0.66 0.66 1.32 1 2 C1.61875 2.28875 2.2375 2.5775 2.875 2.875 C5.36796335 4.19480413 6.45147781 5.67721672 8 8 C7.34 8 6.68 8 6 8 C6.33 9.32 6.66 10.64 7 12 C5.68 12 4.36 12 3 12 C3.33 10.35 3.66 8.7 4 7 C3.34 6.5875 2.68 6.175 2 5.75 C1.34 5.1725 0.68 4.595 0 4 C0 2.68 0 1.36 0 0 Z " fill="#85C6AB" transform="translate(431,402)"/>
<path d="M0 0 C2.16575619 3.24863429 3.62352411 6.60622857 5.125 10.1875 C5.40214844 10.84169922 5.67929687 11.49589844 5.96484375 12.16992188 C6.64597045 13.77879012 7.32335403 15.38924215 8 17 C5 16 5 16 3.61328125 13.92578125 C-0.69379336 5.27282955 -0.69379336 5.27282955 0 0 Z " fill="#76B69D" transform="translate(574,697)"/>
<path d="M0 0 C-1.5 2.0625 -1.5 2.0625 -4 4 C-6.82406647 4.05928384 -9.20225927 3.55954815 -12 3 C-8.61613364 -0.38386636 -4.56431325 -1.75550509 0 0 Z " fill="#8BC0A9" transform="translate(395,624)"/>
<path d="M0 0 C2.31 0.33 4.62 0.66 7 1 C7 1.66 7 2.32 7 3 C7.66 3 8.32 3 9 3 C9 3.66 9 4.32 9 5 C9.99 5 10.98 5 12 5 C12 5.66 12 6.32 12 7 C7.14036821 6.39254603 3.2594482 4.27241033 -1 2 C-0.67 1.34 -0.34 0.68 0 0 Z " fill="#7DB49D" transform="translate(391,427)"/>
<path d="M0 0 C4.24846075 0.47205119 6.26819288 2.88877522 9 6 C9 6.66 9 7.32 9 8 C6.69 7.67 4.38 7.34 2 7 C2 5.33333333 2 3.66666667 2 2 C1.34 2 0.68 2 0 2 C0 1.34 0 0.68 0 0 Z " fill="#7AB79D" transform="translate(450,422)"/>
<path d="M0 0 C4.62 0.66 9.24 1.32 14 2 C14 2.33 14 2.66 14 3 C9.05 3.33 4.1 3.66 -1 4 C-0.67 2.68 -0.34 1.36 0 0 Z " fill="#99C7B3" transform="translate(368,424)"/>
<path d="M0 0 C-2.64 2.64 -5.28 5.28 -8 8 C-9 5 -9 5 -8.3125 2.375 C-7 0 -7 0 -5.0625 -0.875 C-3 -1 -3 -1 0 0 Z " fill="#A6CCBC" transform="translate(464,620)"/>
<path d="M0 0 C5.94 1.485 5.94 1.485 12 3 C11.67 3.99 11.34 4.98 11 6 C6.71 5.01 2.42 4.02 -2 3 C-1.34 2.67 -0.68 2.34 0 2 C0 1.34 0 0.68 0 0 Z " fill="#90C3AC" transform="translate(650,609)"/>
<path d="M0 0 C3.76867646 0.55151363 5.34591504 2.0397255 7.8125 4.875 C8.43769531 5.57367188 9.06289063 6.27234375 9.70703125 6.9921875 C10.13371094 7.65476562 10.56039063 8.31734375 11 9 C10.67 9.99 10.34 10.98 10 12 C8.33032474 10.19019128 6.66417692 8.3773524 5 6.5625 C4.28457031 5.7880957 4.28457031 5.7880957 3.5546875 4.99804688 C0 1.11328125 0 1.11328125 0 0 Z " fill="#96C3B1" transform="translate(311,403)"/>
<path d="M0 0 C4 4.625 4 4.625 4 8 C2.68 9.32 1.36 10.64 0 12 C0 8.04 0 4.08 0 0 Z " fill="#90C2AC" transform="translate(492,251)"/>
<path d="M0 0 C0.66 0 1.32 0 2 0 C2.3669579 6.48292295 2.3669579 6.48292295 0.625 8.9375 C-1 10 -1 10 -3 10 C-2.01 6.7 -1.02 3.4 0 0 Z " fill="#CFDCCE" transform="translate(693,407)"/>
<path d="M0 0 C2.64 0.99 5.28 1.98 8 3 C8 3.66 8 4.32 8 5 C7.34 5 6.68 5 6 5 C5.67 5.66 5.34 6.32 5 7 C2.69 5.35 0.38 3.7 -2 2 C-1.34 1.34 -0.68 0.68 0 0 Z " fill="#8AC0AC" transform="translate(444,775)"/>
<path d="M0 0 C0.66 0 1.32 0 2 0 C2 0.66 2 1.32 2 2 C3.32 2 4.64 2 6 2 C5.67 3.98 5.34 5.96 5 8 C4.34 8 3.68 8 3 8 C0.95830515 5.09451118 0 3.59857954 0 0 Z " fill="#89C0AB" transform="translate(433,762)"/>
<path d="M0 0 C4.42700422 1.39134418 6.99413292 3.47884142 10 7 C10 7.99 10 8.98 10 10 C9.34 10 8.68 10 8 10 C6.5625 8.50390625 6.5625 8.50390625 5 6.5625 C2.85474956 3.84811762 2.85474956 3.84811762 0 2 C0 1.34 0 0.68 0 0 Z " fill="#77B89D" transform="translate(597,583)"/>
<path d="M0 0 C-0.639375 0.103125 -1.27875 0.20625 -1.9375 0.3125 C-2.618125 0.539375 -3.29875 0.76625 -4 1 C-4.33 1.99 -4.66 2.98 -5 4 C-7.33116317 5.60769874 -8.42816426 6.09530596 -11.25 5.625 C-11.8275 5.41875 -12.405 5.2125 -13 5 C-4.68085106 -2.34042553 -4.68085106 -2.34042553 0 0 Z " fill="#99C8B5" transform="translate(536,535)"/>
<path d="M0 0 C4.24822374 0.47202486 6.19989709 2.96655518 9 6 C7.25 6.75 7.25 6.75 5 7 C2.22666082 4.78132865 1.13126558 3.39379675 0 0 Z " fill="#94C3AF" transform="translate(441,414)"/>
<path d="M0 0 C0 3.67718093 -0.82184858 5.07076189 -3 8 C-5.5625 9.375 -5.5625 9.375 -8 10 C-8.66 9.67 -9.32 9.34 -10 9 C-6.7 6.03 -3.4 3.06 0 0 Z " fill="#D3E2D1" transform="translate(556,374)"/>
<path d="M0 0 C2.475 0.495 2.475 0.495 5 1 C5 2.32 5 3.64 5 5 C5.66 5 6.32 5 7 5 C7 6.32 7 7.64 7 9 C6.34 9 5.68 9 5 9 C3.7109375 7.28515625 3.7109375 7.28515625 2.375 5.0625 C1.92898438 4.33160156 1.48296875 3.60070312 1.0234375 2.84765625 C0 1 0 1 0 0 Z " fill="#90C2AD" transform="translate(327,705)"/>
<path d="M0 0 C0.99 0 1.98 0 3 0 C3 1.98 3 3.96 3 6 C2.34 6 1.68 6 1 6 C1 8.97 1 11.94 1 15 C0.67 15 0.34 15 0 15 C0 10.05 0 5.1 0 0 Z " fill="#86B49F" transform="translate(426,664)"/>
<path d="M0 0 C1.32 0.33 2.64 0.66 4 1 C2.33333333 4.33333333 0.66666667 7.66666667 -1 11 C-2.31625194 8.36749612 -1.74813658 7.19820944 -1.0625 4.375 C-0.86785156 3.55773437 -0.67320312 2.74046875 -0.47265625 1.8984375 C-0.23869141 0.95871094 -0.23869141 0.95871094 0 0 Z " fill="#90C3AE" transform="translate(303,354)"/>
<path d="M0 0 C0.33 0 0.66 0 1 0 C1 1.98 1 3.96 1 6 C0.34 6 -0.32 6 -1 6 C-1.66 7.65 -2.32 9.3 -3 11 C-4.32 10.67 -5.64 10.34 -7 10 C-6.57847656 9.52949219 -6.15695312 9.05898438 -5.72265625 8.57421875 C-5.17480469 7.95160156 -4.62695312 7.32898438 -4.0625 6.6875 C-3.51722656 6.07261719 -2.97195313 5.45773437 -2.41015625 4.82421875 C-0.79918441 2.94758042 -0.79918441 2.94758042 0 0 Z " fill="#90C5AF" transform="translate(414,297)"/>
<path d="M0 0 C0.66 0.99 1.32 1.98 2 3 C1.67 3.99 1.34 4.98 1 6 C0.77548542 8.22574335 0.59217122 10.45581519 0.4375 12.6875 C0.35371094 13.86699219 0.26992188 15.04648437 0.18359375 16.26171875 C0.12300781 17.16535156 0.06242187 18.06898438 0 19 C-0.33 19 -0.66 19 -1 19 C-1.02683987 16.02077407 -1.04676037 13.04178705 -1.0625 10.0625 C-1.07087891 9.21236328 -1.07925781 8.36222656 -1.08789062 7.48632812 C-1.09111328 6.67744141 -1.09433594 5.86855469 -1.09765625 5.03515625 C-1.10289307 4.2862915 -1.10812988 3.53742676 -1.11352539 2.76586914 C-1 1 -1 1 0 0 Z " fill="#97BEAB" transform="translate(499,266)"/>
<path d="M0 0 C0 0.33 0 0.66 0 1 C-2.31 1.33 -4.62 1.66 -7 2 C-7 2.33 -7 2.66 -7 3 C-10.3 2.67 -13.6 2.34 -17 2 C-17 1.67 -17 1.34 -17 1 C-11.33357449 -0.22517308 -5.76291482 -0.09228867 0 0 Z " fill="#B9DACD" transform="translate(463,234)"/>
<path d="M0 0 C-3.0469629 1.69433918 -5.82821466 2.49467112 -9.25 3.125 C-10.58804688 3.37636719 -10.58804688 3.37636719 -11.953125 3.6328125 C-12.62859375 3.75398437 -13.3040625 3.87515625 -14 4 C-13.67 3.01 -13.34 2.02 -13 1 C-8.61414671 0.29826347 -4.44209357 -0.10834375 0 0 Z " fill="#9ECAB8" transform="translate(671,748)"/>
<path d="M0 0 C0 3.63327194 -0.95586411 5.04735927 -3 8 C-3.99 8.66 -4.98 9.32 -6 10 C-6.99 9.67 -7.98 9.34 -9 9 C-6.03 6.03 -3.06 3.06 0 0 Z " fill="#ACD4C3" transform="translate(422,595)"/>
<path d="M0 0 C1.65 0.33 3.3 0.66 5 1 C2.525 4.465 2.525 4.465 0 8 C-1.09658936 4.71023192 -0.79953138 3.28696233 0 0 Z " fill="#99C5B3" transform="translate(700,720)"/>
<path d="M0 0 C-1.97566188 1.97566188 -3.52337094 2.89579072 -6 4.125 C-6.70125 4.47820313 -7.4025 4.83140625 -8.125 5.1953125 C-10 6 -10 6 -12 6 C-11 3 -11 3 -8.25 1.3125 C-5.14979295 0.06049331 -3.28328088 -0.28970125 0 0 Z " fill="#72B497" transform="translate(357,633)"/>
<path d="M0 0 C0 0.66 0 1.32 0 2 C-0.66 2 -1.32 2 -2 2 C-2 2.66 -2 3.32 -2 4 C-3.96147874 5.38938077 -5.96166576 6.7260411 -8 8 C-7.32253522 3.25774652 -4.9532836 0 0 0 Z " fill="#73B39C" transform="translate(411,609)"/>
<path d="M0 0 C3.59905908 0.55550695 4.99909799 1.74887248 7.25 4.5625 C8.03117188 5.52349609 8.03117188 5.52349609 8.828125 6.50390625 C9.21484375 6.99761719 9.6015625 7.49132812 10 8 C6.22031427 7.22976993 4.52040369 5.97047577 2 3 C2 2.34 2 1.68 2 1 C1.34 0.67 0.68 0.34 0 0 Z " fill="#76B69C" transform="translate(573,560)"/>
<path d="M0 0 C0.33 0.99 0.66 1.98 1 3 C0.67 3.66 0.34 4.32 0 5 C-0.66 5 -1.32 5 -2 5 C-2 5.66 -2 6.32 -2 7 C-3.98 7 -5.96 7 -8 7 C-5.53058944 4.40062046 -2.81939117 2.20979308 0 0 Z " fill="#88C1AA" transform="translate(406,308)"/>
<path d="M0 0 C0.66 0 1.32 0 2 0 C3.41377341 2.63904371 4.37240135 5.07120629 5 8 C1.63279613 6.60667426 0.0140476 5.0210714 -2 2 C-1.34 2 -0.68 2 0 2 C0 1.34 0 0.68 0 0 Z " fill="#79BA9F" transform="translate(422,736)"/>
<path d="M0 0 C0.33 0.99 0.66 1.98 1 3 C-1.76452033 4.38226016 -4.0461363 4.09525387 -7.125 4.0625 C-8.22070312 4.05347656 -9.31640625 4.04445313 -10.4453125 4.03515625 C-11.70988281 4.01775391 -11.70988281 4.01775391 -13 4 C-13 3.67 -13 3.34 -13 3 C-12.22914063 2.86722656 -11.45828125 2.73445312 -10.6640625 2.59765625 C-9.66117188 2.42105469 -8.65828125 2.24445312 -7.625 2.0625 C-6.62726562 1.88847656 -5.62953125 1.71445312 -4.6015625 1.53515625 C-2.03090344 1.12287938 -2.03090344 1.12287938 0 0 Z " fill="#A4CFBE" transform="translate(685,612)"/>
<path d="M0 0 C4.95 1.98 4.95 1.98 10 4 C10 4.33 10 4.66 10 5 C6.05272412 5.17942163 3.4019487 5.09350689 0 3 C0 2.01 0 1.02 0 0 Z " fill="#8EC3AC" transform="translate(622,602)"/>
<path d="M0 0 C0.33 0.66 0.66 1.32 1 2 C-3.22949995 4.41685712 -6.12335991 5.34833144 -11 5 C-8.77174356 2.77174356 -7.34238372 2.30760631 -4.375 1.375 C-3.55773437 1.11460937 -2.74046875 0.85421875 -1.8984375 0.5859375 C-1.27195312 0.39257812 -0.64546875 0.19921875 0 0 Z " fill="#92C5B1" transform="translate(752,548)"/>
<path d="M0 0 C0.33 0 0.66 0 1 0 C0.88610125 1.79240663 0.75852313 3.58394835 0.625 5.375 C0.52058594 6.87160156 0.52058594 6.87160156 0.4140625 8.3984375 C0 11 0 11 -2 13 C-3.55952523 9.88094953 -2.6359489 7.35318513 -2 4 C-0.9375 1.5625 -0.9375 1.5625 0 0 Z " fill="#86B59F" transform="translate(508,751)"/>
<path d="M0 0 C0.33 0.99 0.66 1.98 1 3 C-1.97 5.475 -1.97 5.475 -5 8 C-5.33 6.68 -5.66 5.36 -6 4 C-5.195625 3.525625 -4.39125 3.05125 -3.5625 2.5625 C-1.15246512 1.23099846 -1.15246512 1.23099846 0 0 Z " fill="#79B79D" transform="translate(695,729)"/>
<path d="M0 0 C4.95 0 9.9 0 15 0 C15 0.33 15 0.66 15 1 C12.02148438 1.34179688 12.02148438 1.34179688 9.04296875 1.68359375 C6.80603607 1.97170735 6.80603607 1.97170735 4 3 C4 2.34 4 1.68 4 1 C2.68 0.67 1.36 0.34 0 0 Z " fill="#88B3A3" transform="translate(367,732)"/>
<path d="M0 0 C0.66 0.66 1.32 1.32 2 2 C1.01 4.31 0.02 6.62 -1 9 C-1.66 9 -2.32 9 -3 9 C-2.44271087 5.65626525 -1.64826111 2.96687001 0 0 Z " fill="#99C5B3" transform="translate(710,705)"/>
<path d="M0 0 C1.65 0 3.3 0 5 0 C3.515 3.465 3.515 3.465 2 7 C0 5 0 5 -0.125 2.375 C-0.08375 1.59125 -0.0425 0.8075 0 0 Z " fill="#9DC6B6" transform="translate(416,336)"/>
<path d="M0 0 C1.98 0 3.96 0 6 0 C5.67 1.32 5.34 2.64 5 4 C2.525 3.01 2.525 3.01 0 2 C0 1.34 0 0.68 0 0 Z " fill="#83B3A0" transform="translate(450,780)"/>
<path d="M0 0 C0.66 0 1.32 0 2 0 C2.125 5.75 2.125 5.75 1 8 C0.01 7.67 -0.98 7.34 -2 7 C-1.34 4.69 -0.68 2.38 0 0 Z " fill="#93BEAB" transform="translate(504,760)"/>
<path d="M0 0 C1.32 0.33 2.64 0.66 4 1 C4 1.66 4 2.32 4 3 C6.64 3 9.28 3 12 3 C12 3.33 12 3.66 12 4 C10.37509046 4.02698189 8.75005367 4.04638757 7.125 4.0625 C5.76761719 4.07990234 5.76761719 4.07990234 4.3828125 4.09765625 C2 4 2 4 0 3 C0 2.01 0 1.02 0 0 Z " fill="#94BDAA" transform="translate(436,710)"/>
<path d="M0 0 C1.65 0.33 3.3 0.66 5 1 C5 1.66 5 2.32 5 3 C4.34 3 3.68 3 3 3 C3 3.66 3 4.32 3 5 C2.34 5 1.68 5 1 5 C1 4.34 1 3.68 1 3 C0.34 3 -0.32 3 -1 3 C-0.67 2.01 -0.34 1.02 0 0 Z " fill="#78BB9F" transform="translate(397,619)"/>
<path d="M0 0 C0.33 0.66 0.66 1.32 1 2 C1.66 2.33 2.32 2.66 3 3 C2.67 3.66 2.34 4.32 2 5 C0.35 5 -1.3 5 -3 5 C-3.33 4.01 -3.66 3.02 -4 2 C-2.68 1.34 -1.36 0.68 0 0 Z " fill="#90BFAD" transform="translate(691,609)"/>
<path d="M0 0 C0.66 0.33 1.32 0.66 2 1 C-0.85276137 3.93200474 -3.65079784 6.64315404 -7 9 C-5.44499019 5.18315774 -2.96404505 2.80804268 0 0 Z " fill="#D0E0CF" transform="translate(702,397)"/>
<path d="M0 0 C1.65 0 3.3 0 5 0 C5.33 0.66 5.66 1.32 6 2 C3.36 2.99 0.72 3.98 -2 5 C-1.34 3.35 -0.68 1.7 0 0 Z " fill="#96C3B2" transform="translate(434,320)"/>
<path d="M0 0 C-1.39332574 3.36720387 -2.9789286 4.9859524 -6 7 C-6 5.35 -6 3.7 -6 2 C-2.25 0 -2.25 0 0 0 Z " fill="#A5CCBE" transform="translate(491,304)"/>
<path d="M0 0 C2.31 1.98 4.62 3.96 7 6 C6.67 6.99 6.34 7.98 6 9 C1.125 4.5 1.125 4.5 0 0 Z " fill="#77BA9E" transform="translate(485,244)"/>
<path d="M0 0 C1.65 1.32 3.3 2.64 5 4 C4.34 5.32 3.68 6.64 3 8 C0.37613513 4.93882432 0 4.26826873 0 0 Z " fill="#8BC1AD" transform="translate(583,716)"/>
<path d="M0 0 C1.7074998 1.28062485 3.37373596 2.61767557 5 4 C5 4.66 5 5.32 5 6 C5.66 6.33 6.32 6.66 7 7 C4 7 4 7 1.8125 5.1875 C0 3 0 3 0 0 Z " fill="#C4D3BF" transform="translate(267,601)"/>
<path d="M0 0 C0.99 0.33 1.98 0.66 3 1 C3 1.66 3 2.32 3 3 C2.34 3 1.68 3 1 3 C1 3.66 1 4.32 1 5 C-0.65 5.33 -2.3 5.66 -4 6 C-2.68 4.02 -1.36 2.04 0 0 Z " fill="#71B99D" transform="translate(423,595)"/>
<path d="M0 0 C0.33 1.65 0.66 3.3 1 5 C0.01 5 -0.98 5 -2 5 C-2 4.34 -2 3.68 -2 3 C-2.66 3 -3.32 3 -4 3 C-4 2.34 -4 1.68 -4 1 C-2 0 -2 0 0 0 Z " fill="#93C0AB" transform="translate(804,571)"/>
<path d="M0 0 C3.83736322 0.95934081 4.59660228 1.23609263 7 4 C6.67 4.99 6.34 5.98 6 7 C4.02 4.69 2.04 2.38 0 0 Z " fill="#79B69C" transform="translate(790,558)"/>
<path d="M0 0 C6.75 0.75 6.75 0.75 9 3 C6 4 6 4 2.8125 2.5625 C1.884375 2.046875 0.95625 1.53125 0 1 C0 0.67 0 0.34 0 0 Z " fill="#99C7B5" transform="translate(607,742)"/>
<path d="M0 0 C0.99 0.33 1.98 0.66 3 1 C3 4.63 3 8.26 3 12 C2.67 12 2.34 12 2 12 C1.34 8.04 0.68 4.08 0 0 Z " fill="#A2CBBC" transform="translate(569,683)"/>
<path d="M0 0 C-1 3 -1 3 -3.875 4.75 C-7 6 -7 6 -10 5 C-8.71186658 4.16121545 -7.41936744 3.32913217 -6.125 2.5 C-5.40570312 2.0359375 -4.68640625 1.571875 -3.9453125 1.09375 C-2 0 -2 0 0 0 Z " fill="#91C5B2" transform="translate(708,600)"/>
<path d="M0 0 C3.25543229 0.34879632 4.01873107 1.02133261 6.25 3.5625 C6.8275 4.366875 7.405 5.17125 8 6 C7.67 6.66 7.34 7.32 7 8 C5.83035398 6.8572081 4.66435444 5.71068285 3.5 4.5625 C2.8503125 3.92441406 2.200625 3.28632813 1.53125 2.62890625 C0 1 0 1 0 0 Z " fill="#78B79D" transform="translate(419,451)"/>
<path d="M0 0 C0.33 0.66 0.66 1.32 1 2 C1.66 2.33 2.32 2.66 3 3 C5 4 5 4 6 6 C4.35 5.67 2.7 5.34 1 5 C0.67 3.35 0.34 1.7 0 0 Z " fill="#A2CCBB" transform="translate(431,402)"/>
<path d="M0 0 C0.66 0.99 1.32 1.98 2 3 C0.68 4.32 -0.64 5.64 -2 7 C-2.99 6.67 -3.98 6.34 -5 6 C-3.35 4.02 -1.7 2.04 0 0 Z " fill="#CFDDCE" transform="translate(563,366)"/>
<path d="M0 0 C2.6875 0.3125 2.6875 0.3125 5 1 C4.01 1.495 4.01 1.495 3 2 C3 2.66 3 3.32 3 4 C0.03 3.505 0.03 3.505 -3 3 C-1.8125 1.4375 -1.8125 1.4375 0 0 Z " fill="#8CC4AD" transform="translate(329,320)"/>
</svg>
